<svg xmlns="http://www.w3.org/2000/svg" height="150.6" width="155.29" version="1.1" viewBox="0 0 155.28067 150.59901">
 <path stroke-linejoin="round" d="m77.641,150.1,21.76-21.76v-57.12l29.92,29.92s4.24,2.214,10.88,0c8.16-2.72,10.88-5.44,13.6-13.6,2.21-6.642,0-10.88,0-10.88l-76.159-76.161-76.159,76.16s-2.2139,4.238,0,10.88c2.72,8.16,5.44,10.88,13.6,13.6,6.642,2.214,10.88,0,10.88,0l29.92-29.92v57.12l21.76,21.76z" fill-rule="evenodd" stroke="#000" stroke-linecap="round" stroke-width="1px" fill="#00F"/>
 <path fill-rule="evenodd" fill="#FFF" d="m77.641,44.018,13.6,13.6h8.16l27.2,27.199h10.88v-10.88l-59.839-59.839-59.84,59.839v10.88h10.88l27.2-27.199h8.16l13.6-13.6"/>
 <path fill-rule="evenodd" fill="#FFF" d="M77.576,81.855,88.021,92.478v-32.64l-10.445-10.56-10.815,11.06v32.64l10.88-10.88"/>
 <path fill-rule="evenodd" fill="#FFF" d="m77.641,131.06,10.88-10.88v-21.76l-10.88-10.88-10.88,10.88v21.76l10.88,10.88"/>
</svg>
