<svg xmlns="http://www.w3.org/2000/svg" height="155.29" width="150.6" version="1.1" viewBox="0 0 150.59196 155.28518">
 <path stroke-linejoin="round" d="m0.49698,77.643,21.76,21.76,57.12,0-29.92,29.92s-2.214,4.24,0,10.88c2.72,8.16,5.44,10.88,13.6,13.6,6.642,2.21,10.88,0,10.88,0l76.159-76.16-76.16-76.159s-4.238-2.2139-10.88,0c-8.16,2.72-10.88,5.44-13.6,13.6-2.214,6.642,0,10.88,0,10.88l29.92,29.92h-57.12l-21.76,21.76z" fill-rule="evenodd" stroke="#000" stroke-linecap="round" stroke-width="1px" fill="#00F"/>
 <path d="m106.58,77.643-13.6,13.6,0,8.16-27.199,27.2,0,10.88,10.88,0,59.839-59.84-59.839-59.84-10.88,0,0,10.88,27.199,27.2,0,8.16,13.6,13.6" fill-rule="evenodd" fill="#FFF"/>
 <path d="m68.74,77.578-10.623,10.445,32.64,0,10.56-10.445-11.06-10.815-32.64,0,10.88,10.88" fill-rule="evenodd" fill="#FFF"/>
 <path d="m19.537,77.643,10.88,10.88,21.76,0,10.88-10.88-10.88-10.88-21.76,0-10.88,10.88" fill-rule="evenodd" fill="#FFF"/>
</svg>
